<svg width="27" height="34" viewBox="0 0 27 34" fill="none" xmlns="http://www.w3.org/2000/svg">
<path d="M22.496 18.4987C22.4609 14.3111 25.9232 12.2759 26.0752 12.1823C24.1101 9.32822 21.0689 8.93052 20.0045 8.89543C17.4546 8.6264 14.9748 10.4277 13.6764 10.4277C12.3547 10.4277 10.3428 8.93052 8.19056 8.96562C5.41838 9.0124 2.80995 10.6149 1.39462 13.118C-1.54132 18.2062 0.646012 25.6923 3.46498 29.8096C4.88032 31.8215 6.51789 34.079 8.68184 33.9972C10.7873 33.9153 11.5827 32.652 14.1209 32.652C16.6475 32.652 17.3844 33.9972 19.5834 33.9504C21.8526 33.9153 23.268 31.9268 24.6365 29.8915C26.2624 27.5872 26.9174 25.3063 26.9408 25.1893C26.8823 25.1659 22.5428 23.505 22.496 18.4987Z" fill="white"/>
<path d="M18.3437 6.19397C19.4783 4.77864 20.2503 2.84864 20.0397 0.883545C18.4021 0.953727 16.3435 2.01815 15.1621 3.41009C14.1211 4.63828 13.1853 6.63846 13.4192 8.52167C15.2674 8.66204 17.1623 7.58592 18.3437 6.19397Z" fill="white"/>
</svg>
