<svg width="32" height="32" viewBox="0 0 32 32" fill="none" xmlns="http://www.w3.org/2000/svg">
<path d="M4.89506 3.77637C4.8942 3.77637 4.89323 3.77637 4.89237 3.77637C4.58971 3.77637 4.30505 3.89435 4.0901 4.10876C3.87278 4.32554 3.75308 4.61419 3.75308 4.92148V22.0922C3.75308 22.7218 4.26734 23.2353 4.89959 23.237C7.56497 23.2433 12.0306 23.7988 15.1112 27.0227V9.05304C15.1112 8.8396 15.0567 8.63909 14.9538 8.47316C12.4253 4.40128 7.56648 3.78262 4.89506 3.77637Z" fill="white"/>
<path d="M28.2471 22.0922V4.92135C28.2471 4.61407 28.1274 4.32542 27.91 4.10864C27.6951 3.89423 27.4102 3.77625 27.1079 3.77625C27.1069 3.77625 27.1059 3.77625 27.1051 3.77625C24.4338 3.7826 19.5749 4.40127 17.0464 8.47315C16.9435 8.63908 16.8891 8.83959 16.8891 9.05303V27.0226C19.9697 23.7987 24.4353 23.2432 27.1007 23.2368C27.7328 23.2352 28.2471 22.7217 28.2471 22.0922Z" fill="white"/>
<path d="M30.8548 7.73621H30.0245V22.0922C30.0245 23.6998 28.7147 25.0108 27.1045 25.0148C24.8437 25.0201 21.116 25.4622 18.4759 27.9609C23.0419 26.843 27.8553 27.5697 30.5985 28.1948C30.941 28.2728 31.2949 28.1922 31.5694 27.9735C31.8428 27.7553 31.9997 27.4292 31.9997 27.0791V8.8811C31.9998 8.24982 31.4861 7.73621 30.8548 7.73621Z" fill="white"/>
<path d="M1.97517 22.0922V7.73621H1.14489C0.513726 7.73621 0 8.24982 0 8.8811V27.0788C0 27.429 0.156876 27.755 0.430331 27.9732C0.704541 28.1918 1.05816 28.2727 1.40122 28.1945C4.14439 27.5693 8.95787 26.8426 13.5237 27.9606C10.8837 25.462 7.15596 25.02 4.89515 25.0146C3.28513 25.0108 1.97517 23.6998 1.97517 22.0922Z" fill="white"/>
</svg>
