<svg width="32" height="32" viewBox="0 0 32 32" fill="none" xmlns="http://www.w3.org/2000/svg">
<g clip-path="url(#clip0)">
<path d="M8.6326 9.9057C10.0792 9.45106 10.882 7.91122 10.4279 6.46505C10.0592 5.29347 8.97606 4.54382 7.80977 4.54382C7.53793 4.54382 7.26086 4.58489 6.98693 4.67087C5.54123 5.12537 4.7385 6.66632 5.19359 8.1119C5.56016 9.28348 6.64236 10.0332 7.80755 10.0332C8.08056 10.0332 8.35867 9.99207 8.6326 9.9057Z" fill="white"/>
<path d="M10.1267 10.2402C10.1267 10.2402 7.52896 11.0727 7.49025 11.0866C6.51334 11.4397 5.80338 12.2719 5.63717 13.3056L4.67097 19.3034C4.55301 20.0388 5.05347 20.731 5.78778 20.849C5.86044 20.8612 5.93317 20.8664 6.00485 20.8664C6.65488 20.8664 7.22702 20.3949 7.33448 19.7322L7.53275 18.5011L7.77025 20.7419L8.01304 23.0315C8.03308 23.217 8.1342 23.384 8.2901 23.4862C8.446 23.5883 8.63989 23.6152 8.81805 23.5595L9.67718 23.2893L10.4917 25.8779H6.32304C6.20612 25.8779 6.11022 25.7826 6.11022 25.6651V21.6666C6.07509 21.6683 6.04128 21.6761 6.00589 21.6761C5.89106 21.6761 5.77616 21.6666 5.65924 21.6482C4.82654 21.5138 4.19036 20.9158 3.95233 20.1625V25.6651C3.95233 26.9722 5.01541 28.0358 6.32291 28.0358H10.785V26.8103V22.9408V12.8605V10.1294C10.6103 10.1421 10.4356 10.1717 10.2618 10.2174C10.2171 10.2292 10.1713 10.2261 10.1267 10.2402Z" fill="white"/>
<path d="M22.0961 0.00698633H7.18921H6.32309C5.01383 0.00698633 3.95251 1.06837 3.95251 2.37763V18.6778L4.83861 13.1772C4.98217 12.2826 5.443 11.502 6.11027 10.9468V10.7126C5.19976 10.2619 4.48458 9.45777 4.16423 8.43588C3.85766 7.46179 3.94932 6.42665 4.42027 5.52104C4.79839 4.7956 5.39091 4.23338 6.11027 3.87667V2.37756C6.11027 2.26051 6.2061 2.16474 6.32309 2.16474H7.18921H11.3068H16.808L12.9019 2.94592C12.2982 3.06657 11.8642 3.59654 11.8642 4.21236V30.7082C11.8642 31.0953 12.038 31.4621 12.3372 31.7069C12.6365 31.9525 13.0295 32.051 13.4086 31.9747L27.0098 29.2548C27.6137 29.1341 28.0476 28.6041 28.0476 27.9883V1.04473C28.0476 0.46717 27.579 -0.000782421 27.0015 9.82191e-07L22.0961 0.00698633ZM14.5866 19.0452C14.0029 19.0452 13.5297 18.5721 13.5297 17.989C13.5297 17.4053 14.0029 16.9322 14.5866 16.9322C15.1704 16.9322 15.6434 17.4053 15.6434 17.989C15.6434 18.5721 15.1705 19.0452 14.5866 19.0452ZM22.8597 8.10764C22.8597 8.41369 22.6436 8.67704 22.3423 8.73664L18.1784 9.5617C17.9897 9.59898 17.7949 9.55001 17.6464 9.42774C17.4989 9.30605 17.4125 9.12436 17.4125 8.9321V7.8153C17.4125 7.50925 17.6285 7.24583 17.9298 7.18629L22.0937 6.36124C22.2824 6.32389 22.4772 6.37286 22.6257 6.49513C22.7732 6.61682 22.8597 6.7985 22.8597 6.99077V8.10764Z" fill="white"/>
</g>
<defs>
<clipPath id="clip0">
<rect width="32" height="32" fill="white"/>
</clipPath>
</defs>
</svg>
