<svg width="165" height="42" viewBox="0 0 165 42" fill="none" xmlns="http://www.w3.org/2000/svg">
<path d="M34.5504 17.2643C33.6364 17.2643 32.8686 16.9379 32.2471 16.3213C31.589 15.6685 31.2965 14.9068 31.2965 14.0363C31.2965 13.1296 31.6256 12.3679 32.2471 11.7514C32.9052 11.0985 33.673 10.8083 34.5504 10.8083C35.4645 10.8083 36.2323 11.1348 36.8538 11.7514C37.5119 12.4042 37.8044 13.1659 37.8044 14.0363C37.8044 14.9431 37.4753 15.7047 36.8538 16.3213C36.2323 16.9379 35.4279 17.2643 34.5504 17.2643ZM37.4388 19.8394V41.5648H31.6987V19.8394H37.4388Z" fill="#011640"/>
<path d="M41.936 41.6011V19.8394H47.7126V22.2332C48.4073 21.2902 49.2482 20.5648 50.2719 20.0933C51.259 19.6218 52.3559 19.3679 53.5624 19.3679C54.1108 19.4042 54.5861 19.4405 54.9883 19.513C55.3539 19.5855 55.6829 19.6943 55.9754 19.8757V24.8809C55.5733 24.6995 55.098 24.5544 54.5861 24.4456C54.0742 24.3368 53.5624 24.3006 53.014 24.3006C51.8806 24.3006 50.8569 24.5907 49.9063 25.1348C48.9557 25.6788 48.2245 26.513 47.7126 27.5648V41.6373H41.936V41.6011Z" fill="#011640"/>
<path d="M57.9131 41.601V37.5388L68.9545 24.6632H58.0227V19.8394H76.3398V23.9015L65.2253 36.7772H76.5957V41.5647H57.9131V41.601Z" fill="#011640"/>
<path d="M78.3505 30.7566C78.3505 29.1607 78.643 27.6737 79.2645 26.3317C79.8495 24.9535 80.6904 23.7566 81.7507 22.7411C82.8109 21.7255 84.054 20.9276 85.4799 20.3473C86.9058 19.767 88.4413 19.4768 90.05 19.4768C91.6587 19.4768 93.1943 19.767 94.6202 20.3473C96.046 20.9276 97.2891 21.7255 98.3494 22.7411C99.4097 23.7566 100.214 24.9535 100.836 26.3317C101.421 27.71 101.75 29.197 101.75 30.7566C101.75 32.3162 101.457 33.8395 100.836 35.1815C100.251 36.5597 99.4097 37.7566 98.3494 38.7359C97.2891 39.7514 96.046 40.5131 94.6202 41.1297C93.1943 41.71 91.6587 42.0001 90.05 42.0001C88.4413 42.0001 86.9058 41.71 85.4799 41.1297C84.054 40.5493 82.8109 39.7514 81.7507 38.7359C80.6904 37.7203 79.8861 36.5597 79.2645 35.1815C78.643 33.8032 78.3505 32.3162 78.3505 30.7566ZM90.05 37.0312C91.7318 37.0312 93.1577 36.4146 94.3277 35.1815C95.4976 33.9483 96.0826 32.4613 96.0826 30.7203C96.0826 28.9431 95.4976 27.4561 94.3277 26.2229C93.1577 24.9898 91.7318 24.3732 90.05 24.3732C88.3682 24.3732 86.9423 24.9898 85.7724 26.2229C84.6024 27.4561 84.0175 28.9431 84.0175 30.7203C84.0175 32.4613 84.6024 33.9483 85.7724 35.1815C86.9423 36.4146 88.3682 37.0312 90.05 37.0312Z" fill="#011640"/>
<path d="M104.419 30.7566C104.419 29.1607 104.711 27.6737 105.333 26.3317C105.918 24.9535 106.758 23.7566 107.819 22.7411C108.879 21.7255 110.122 20.9276 111.548 20.3473C112.974 19.767 114.509 19.4768 116.118 19.4768C117.727 19.4768 119.262 19.767 120.688 20.3473C122.114 20.9276 123.357 21.7255 124.417 22.7411C125.478 23.7566 126.282 24.9535 126.904 26.3317C127.489 27.71 127.818 29.197 127.818 30.7566C127.818 32.3162 127.525 33.8395 126.904 35.1815C126.319 36.5597 125.478 37.7566 124.417 38.7359C123.357 39.7514 122.114 40.5131 120.688 41.1297C119.262 41.71 117.727 42.0001 116.118 42.0001C114.509 42.0001 112.974 41.71 111.548 41.1297C110.122 40.5493 108.879 39.7514 107.819 38.7359C106.758 37.7203 105.954 36.5597 105.333 35.1815C104.748 33.8032 104.419 32.3162 104.419 30.7566ZM116.118 37.0312C117.8 37.0312 119.226 36.4146 120.396 35.1815C121.566 33.9483 122.151 32.4613 122.151 30.7203C122.151 28.9431 121.566 27.4561 120.396 26.2229C119.226 24.9898 117.8 24.3732 116.118 24.3732C114.436 24.3732 113.01 24.9898 111.84 26.2229C110.671 27.4561 110.086 28.9431 110.086 30.7203C110.086 32.4613 110.671 33.9483 111.84 35.1815C113.01 36.4146 114.436 37.0312 116.118 37.0312Z" fill="#011640"/>
<path d="M131.328 41.6011V19.8394H137.104V21.4715C137.872 20.8187 138.75 20.3109 139.7 19.9482C140.651 19.5855 141.675 19.4404 142.808 19.4404C144.197 19.4404 145.477 19.7306 146.61 20.3109C147.744 20.8912 148.694 21.6891 149.389 22.7047C150.266 21.6529 151.327 20.8549 152.533 20.2746C153.776 19.7306 155.129 19.4404 156.628 19.4404C159.078 19.4404 161.088 20.2384 162.624 21.8705C164.196 23.4663 164.964 25.57 164.964 28.0726V41.6011H159.187V28.9067C159.187 27.5285 158.822 26.4404 158.09 25.6062C157.359 24.772 156.336 24.3731 155.092 24.3731C154.215 24.3731 153.447 24.5544 152.716 24.9534C151.985 25.3161 151.4 25.8601 150.888 26.5492C150.924 26.8031 150.961 27.057 150.961 27.3109C150.998 27.5648 150.998 27.8187 150.998 28.1088V41.6373H145.221V28.943C145.221 27.5648 144.855 26.4767 144.124 25.6425C143.393 24.8083 142.369 24.4093 141.126 24.4093C140.249 24.4093 139.481 24.5907 138.823 24.9171C138.165 25.2435 137.58 25.7513 137.068 26.3679V41.6373H131.328V41.6011Z" fill="#011640"/>
<path d="M13.9297 41.5647L14.2587 33.6217C17.6224 33.7668 20.4376 31.1917 20.5472 27.9274C20.6935 24.6269 18.0976 21.8342 14.8072 21.6891L15.1362 13.7461C22.8871 14.0725 28.8832 20.601 28.5541 28.2539C28.2616 35.943 21.6806 41.9274 13.9297 41.5647Z" fill="#FF2700"/>
<path d="M10.0177 30.0674H2.01086L0 0H12.0286L10.0177 30.0674Z" fill="#011640"/>
<path d="M6.03246 41.6011C8.25359 41.6011 10.0542 39.8149 10.0542 37.6115C10.0542 35.408 8.25359 33.6218 6.03246 33.6218C3.81133 33.6218 2.01074 35.408 2.01074 37.6115C2.01074 39.8149 3.81133 41.6011 6.03246 41.6011Z" fill="#FFCE00"/>
</svg>
