<svg width="32" height="36" viewBox="0 0 32 36" fill="none" xmlns="http://www.w3.org/2000/svg">
<path d="M6.53221 1.43028C5.23341 0.690047 3.70847 0.707162 2.41797 1.44098L17.5429 15.8286L22.624 10.5891L6.53221 1.43028Z" fill="white"/>
<path d="M0.90515 2.91016C0.535844 3.53273 0.324219 4.24515 0.324219 5.00037V30.9857C0.324219 31.7174 0.517171 32.4148 0.86573 33.0246L16.0758 17.3405L0.90515 2.91016Z" fill="white"/>
<path d="M29.3593 14.4257L24.5126 11.668L19.0664 17.2818L25.7409 23.6294L29.3613 21.5692C30.6643 20.8247 31.4444 19.4897 31.4444 17.9964C31.4423 16.503 30.6643 15.1681 29.3593 14.4257Z" fill="white"/>
<path d="M17.6031 18.793L2.35156 34.5198C3.01341 34.9092 3.73957 35.1146 4.46989 35.1146C5.1753 35.1146 5.88487 34.9306 6.53427 34.5605L23.8315 24.717L17.6031 18.793Z" fill="white"/>
</svg>
