<svg width="32" height="32" viewBox="0 0 32 32" fill="none" xmlns="http://www.w3.org/2000/svg">
<g clip-path="url(#clip0)">
<path d="M31.3744 8.02217L16.3119 2.70773C16.1101 2.63648 15.8899 2.63648 15.6881 2.70773L0.625611 8.02217C0.251111 8.1543 0.00048549 8.50805 -1.45096e-05 8.90517C-0.00051451 9.3023 0.249298 9.65661 0.623486 9.78961L15.686 15.1444C15.7875 15.1805 15.8938 15.1986 16 15.1986C16.1062 15.1986 16.2124 15.1805 16.314 15.1444L31.3765 9.78961C31.7507 9.65661 32.0004 9.3023 32 8.90517C31.9995 8.50805 31.7489 8.1543 31.3744 8.02217Z" fill="#FBFDFF"/>
<path d="M29.7485 20.5359V12.3584L27.8735 13.025V20.5359C27.3087 20.861 26.9281 21.47 26.9281 22.1685C26.9281 22.8668 27.3087 23.476 27.8735 23.801V28.4083C27.8735 28.926 28.2932 29.3458 28.811 29.3458C29.3287 29.3458 29.7485 28.926 29.7485 28.4083V23.8011C30.3132 23.4761 30.6938 22.8669 30.6938 22.1685C30.6938 21.4701 30.3133 20.861 29.7485 20.5359Z" fill="#FBFDFF"/>
<path d="M15.9998 17.0736C15.678 17.0736 15.361 17.0189 15.0577 16.9111L6.59003 13.9008V18.0263C6.59003 19.0356 7.64296 19.8891 9.71959 20.5631C11.5297 21.1506 13.76 21.4742 15.9998 21.4742C18.2395 21.4742 20.4698 21.1506 22.28 20.5631C24.3566 19.8891 25.4095 19.0356 25.4095 18.0263V13.9008L16.9419 16.9111C16.6385 17.0189 16.3216 17.0736 15.9998 17.0736Z" fill="#FBFDFF"/>
</g>
<defs>
<clipPath id="clip0">
<rect width="32" height="32" fill="white"/>
</clipPath>
</defs>
</svg>
