<svg width="32" height="32" viewBox="0 0 32 32" fill="none" xmlns="http://www.w3.org/2000/svg">
<g clip-path="url(#clip0)">
<path d="M29.6658 26.2357L27.209 16.9862C26.9587 16.7264 26.6663 16.5133 26.3296 16.3392C24.6267 15.4701 21.8178 14.7463 20.0342 14.0621C19.9017 14.0116 19.7443 13.9092 19.6893 13.7908C19.544 13.4708 19.4454 13.131 19.3418 12.7937C19.2752 12.5774 19.2189 12.3771 18.9821 12.2734C18.9168 12.2453 18.8605 12.1205 18.8611 12.0405C18.8746 11.2591 18.6922 10.4367 19.2746 9.75768C19.2899 9.7372 19.3008 9.7052 19.311 9.6796C19.6246 8.99355 19.6809 8.2147 20.1155 7.57601C20.1238 7.56449 20.1296 7.54209 20.1296 7.52161C20.182 7.03395 20.2358 6.55333 20.2761 6.06375C20.28 6.00423 20.2249 5.89735 20.1744 5.88135C19.9318 5.79368 19.9472 5.60105 19.9478 5.40713C19.9478 4.45613 19.9478 4.56045 19.9465 3.61137C19.9465 3.05971 19.784 2.56757 19.3667 2.19254C18.8919 1.7676 18.4042 1.35354 17.9165 0.940112C17.6817 0.74108 17.6618 0.586206 17.8794 0.367335C17.9773 0.271979 18.1053 0.199662 18.216 0.119665C18.1898 0.0831866 18.168 0.047988 18.1418 0.0083096C17.9953 0.0083096 17.8436 -0.0128096 17.7015 0.0127894C17.1652 0.102386 16.6212 0.175343 16.0901 0.300138C15.0808 0.539488 14.0978 0.856276 13.2754 1.53337C12.7129 1.99863 12.2643 2.53493 12.208 3.29906C12.1798 3.69712 12.183 4.09903 12.1811 4.50029C12.1779 5.1537 12.183 4.75372 12.1696 5.40649C12.1676 5.51209 12.1075 5.68488 12.0339 5.70984C11.7721 5.79496 11.7606 5.96519 11.799 6.1847C11.8259 6.33574 11.8041 6.49445 11.8393 6.641C11.9277 7.04867 12.0275 7.45569 12.1452 7.85696C12.2329 8.1571 12.4006 8.43805 12.4486 8.74204C12.5427 9.35066 12.7686 9.87735 13.1801 10.3381C13.2473 10.413 13.2991 10.5391 13.2908 10.6383C13.2569 11.1061 13.2089 11.5746 13.1481 12.0366C13.1353 12.1301 13.0387 12.2651 12.9599 12.2792C12.6489 12.3451 12.6016 12.5851 12.5286 12.827C12.4313 13.1431 12.3244 13.4631 12.2028 13.7729C12.1625 13.8676 12.0678 13.9713 11.9725 14.0116C11.4189 14.2509 6.3106 16.0736 5.72631 16.384C5.38456 16.5708 5.06329 16.7731 4.79258 17.0278L2.3338 26.2357C2.91234 26.2357 4.70811 26.4258 5.3596 26.7221V19.8731C5.3596 18.4716 6.50067 17.3292 7.9035 17.3292H15.4917L15.7534 15.6461L14.9375 14.8372L15.2702 14.0237H16.73L17.0635 14.8372L16.2475 15.6461L16.5086 17.3292H24.0968C25.499 17.3292 26.6407 18.4703 26.6407 19.8731V26.7221C27.2915 26.4258 29.0867 26.2357 29.6658 26.2357Z" fill="white"/>
<path d="M24.0962 30.6452C24.8559 30.6452 25.4696 30.0302 25.4696 29.2744V19.8731C25.4696 19.1141 24.8546 18.4998 24.0962 18.4998H7.9036C7.1446 18.4998 6.53022 19.1154 6.53022 19.8731V29.2744C6.53022 30.0302 7.14524 30.6452 7.9036 30.6452H5.4877C5.4877 31.7235 5.95424 32 6.52638 32H25.4728C26.045 32 26.5115 31.7223 26.5115 30.6452H24.0962Z" fill="white"/>
</g>
<defs>
<clipPath id="clip0">
<rect width="32" height="32" fill="white"/>
</clipPath>
</defs>
</svg>
